<svg xmlns="http://www.w3.org/2000/svg" width="1000" height="1250" viewBox="0 0 960 540">
  <defs>
    <style>
      .cls-1 {
        fill: #010005;
      }

      .cls-1, .cls-2 {
        fill-rule: evenodd;
      }

      .cls-2, .cls-3 {
        fill: #1d2226;
      }
    </style>
  </defs>
  <path class="cls-1" d="M-6.349,0h4011.7V2250H-6.349V0Z"/>
  <path class="cls-2" d="M161.512,147c43.354,0,78.5,35.593,78.5,79.5s-35.146,79.5-78.5,79.5-78.5-35.593-78.5-79.5S118.158,147,161.512,147Z"/>
  <path class="cls-2" d="M1806.51,555c148.29,0,268.5,117.525,268.5,262.5S1954.8,1080,1806.51,1080s-268.5-117.525-268.5-262.5S1658.23,555,1806.51,555Z"/>
  <path id="Ellipse_2_copy" data-name="Ellipse 2 copy" class="cls-2" d="M2528.52,414c91.4,0,165.5,75.664,165.5,169s-74.1,169-165.5,169-165.5-75.664-165.5-169S2437.11,414,2528.52,414Z"/>
  <path id="Ellipse_2_copy_2" data-name="Ellipse 2 copy 2" class="cls-2" d="M1731.99,1809c59.09,0,107,48.13,107,107.5s-47.91,107.5-107,107.5-107-48.13-107-107.5S1672.89,1809,1731.99,1809Z"/>
  <ellipse id="Ellipse_2_copy_3" data-name="Ellipse 2 copy 3" class="cls-3" cx="3258" cy="1864" rx="137" ry="133"/>
</svg>
